Coordinates
version=1
nRows=14
nColumns=42
inDegrees=yes

Units are S.I. units (second, meters, Newtons, ...)
If the header above contains a line with 'inDegrees', this indicates whether rotational values are in degrees (yes) or radians (no).

endheader
time	pelvis_tilt	pelvis_list	pelvis_rotation	pelvis_tx	pelvis_ty	pelvis_tz	hip_flexion_r	hip_adduction_r	hip_rotation_r	knee_angle_r	knee_adduction_r	knee_angle_r_beta	ankle_angle_r	subtalar_angle_r	mtp_angle_r	hip_flexion_l	hip_adduction_l	hip_rotation_l	knee_angle_l	knee_adduction_l	knee_angle_l_beta	ankle_angle_l	subtalar_angle_l	mtp_angle_l	lumbar_extension	lumbar_bending	lumbar_rotation	arm_flex_r	arm_add_r	arm_rot_r	elbow_flex_r	pro_sup_r	wrist_flex_r	wrist_dev_r	arm_flex_l	arm_add_l	arm_rot_l	elbow_flex_l	pro_sup_l	wrist_flex_l	wrist_dev_l
      1.93000000	     11.98738966	     -2.88565387	     -3.95882136	      1.07195922	      0.86168016	     -0.21410096	    -29.72497566	      4.60859313	    -25.00702965	     14.00361616	     -2.85869798	      0.24440921	     16.27108375	     35.95010700	     -7.50028621	     15.65578609	     -0.71891980	    -28.34230818	     16.37909267	     -1.72685361	      0.28586910	     11.33686728	     16.27384054	     -7.50028621	    -24.04030192	      1.07021937	      4.20718972	      3.05400918	     -5.41627297	    -11.37813023	     48.93027732	     90.00000001	      0.00000000	      0.00000000	     -4.43751913	     -3.13581365	    -22.90454179	     34.02731611	     90.00000001	      0.00000000	      0.00000000
      1.94000000	     11.60511308	     -2.60824124	     -4.14543369	      1.08537068	      0.85978223	     -0.21299687	    -29.74398428	      4.17943012	    -25.10995386	     14.90397472	     -3.18812830	      0.26012343	     15.90548644	     35.63302274	     -7.50028029	     16.06108293	     -0.12398241	    -27.92436495	     17.25668649	     -2.18980995	      0.30118600	     11.31560186	     15.57596368	     -7.50028029	    -23.40442683	      0.65579015	      4.24705684	      2.79906066	     -5.29557294	    -11.38676251	     48.55847166	     90.00000001	      0.00000000	      0.00000000	     -4.77429350	     -3.24868563	    -23.14653559	     33.75258163	     90.00000001	      0.00000000	      0.00000000
      1.95000000	     11.25959617	     -2.19990230	     -4.32100731	      1.09884508	      0.85812388	     -0.21192532	    -29.75452916	      3.61747407	    -25.27580229	     15.83462784	     -3.52064757	      0.27636639	     15.29213061	     35.53409196	     -7.50025693	     16.29463575	      0.73369450	    -26.34398579	     18.05421858	     -2.50413850	      0.31510556	     10.75596279	     12.81678108	     -7.50025693	    -22.79787943	      0.08499469	      4.18928984	      2.77669191	     -5.08036232	    -11.59584199	     47.51610594	     90.00000001	      0.00000000	      0.00000000	     -4.88132194	     -3.28341363	    -24.20839594	     33.10261782	     90.00000001	      0.00000000	      0.00000000
      1.96000000	     10.93764489	     -1.77269244	     -4.49774477	      1.11243264	      0.85659397	     -0.21085097	    -29.76632575	      3.08192801	    -25.05274977	     16.76752525	     -3.85959883	      0.29264852	     14.87685024	     35.06550395	     -7.50025420	     16.69267939	      1.46441227	    -25.57984119	     19.35593811	     -3.12445865	      0.33782485	     10.59794748	     12.43284725	     -7.50025420	    -22.23393550	     -0.51136370	      4.20440339	      2.36170582	     -4.96289345	    -11.60922035	     47.29502634	     90.00000001	      0.00000000	      0.00000000	     -5.17336953	     -3.45508477	    -24.31450543	     32.99810477	     90.00000001	      0.00000000	      0.00000000
      1.97000000	     10.74937125	     -1.15836390	     -4.68158908	      1.12608599	      0.85537484	     -0.20987805	    -29.76727498	      2.26178340	    -25.27563578	     17.95773498	     -4.25149313	      0.31342160	     13.69498980	     34.21681578	     -7.50024924	     17.07999252	      2.33567789	    -25.10125785	     21.02790867	     -3.83488251	      0.36700624	     10.42041554	     10.77561870	     -7.50024924	    -21.80861262	     -1.32009881	      4.07793111	      2.08590247	     -4.76523505	    -11.65519327	     46.76654461	     90.00000001	      0.00000000	      0.00000000	     -5.49930046	     -3.62929642	    -24.54367174	     32.69659235	     90.00000001	      0.00000000	      0.00000000
      1.98000000	     10.58607375	     -0.49646709	     -4.82346534	      1.13959383	      0.85465190	     -0.20888727	    -29.76598746	      1.47569323	    -24.96866811	     19.07659255	     -4.52939959	      0.33294935	     11.80756306	     33.02180112	     -7.50023808	     17.25122972	      3.38064274	    -23.04253719	     22.49111544	     -4.07554637	      0.39254402	      9.70963287	      7.02151210	     -7.50023808	    -21.44027837	     -2.19739363	      3.99470325	      1.95837604	     -4.51744919	    -11.90487682	     45.76495022	     90.00000001	      0.00000000	      0.00000000	     -5.61451545	     -3.77153723	    -25.10991731	     32.25660242	     90.00000001	      0.00000000	      0.00000000
      1.99000000	     10.52733678	      0.24122659	     -4.88059994	      1.15291500	      0.85438594	     -0.20810600	    -29.76771788	      0.70437425	    -24.19365712	     20.30966911	     -4.83009139	      0.35447060	      9.89608683	     30.99608524	     -7.50022294	     17.22894776	      4.53905500	    -20.25152480	     23.92839480	     -3.89432160	      0.41762927	      8.78193773	      1.97925839	     -7.50022294	    -21.26166742	     -3.12577582	      3.72188191	      1.77129447	     -4.19726086	    -12.37991372	     44.99961661	     90.00000001	      0.00000000	      0.00000000	     -5.60563997	     -3.86367827	    -25.91490422	     31.88575903	     90.00000001	      0.00000000	      0.00000000
      2.00000000	     10.59117314	      0.95993202	     -4.94143315	      1.16619784	      0.85452950	     -0.20731042	    -29.76086270	     -0.06859030	    -23.19657151	     21.74532603	     -5.07989930	      0.37952754	      8.01311290	     28.38360730	     -7.50020538	     17.10074717	      5.57616527	    -17.80063617	     25.54247276	     -3.61947253	      0.44580025	      8.17343573	     -2.18218597	     -7.50020538	    -21.23411749	     -4.04105344	      3.52874230	      1.48671187	     -3.92375216	    -12.77458040	     44.43831939	     90.00000001	      0.00000000	      0.00000000	     -5.58477028	     -3.98319332	    -26.53487741	     31.58748930	     90.00000001	      0.00000000	      0.00000000
      2.01000000	     10.77521306	      1.64324687	     -4.99128182	      1.17940595	      0.85507919	     -0.20651185	    -29.74982582	     -0.80593327	    -21.82062556	     23.38092735	     -5.23294442	      0.40807416	      5.57045782	     25.26260271	     -7.50018877	     16.73734953	      6.53079596	    -15.38900322	     27.04674699	     -3.11093105	      0.47205479	      7.87118706	     -5.91988684	     -7.50018877	    -21.36567576	     -4.91467218	      3.33115095	      1.17162777	     -3.70449385	    -13.07510319	     43.90861617	     90.00000001	      0.00000000	      0.00000000	     -5.55353573	     -4.13371759	    -26.87880851	     31.36407280	     90.00000001	      0.00000000	      0.00000000
      2.02000000	     11.09173193	      2.25544444	     -5.01985671	      1.19249451	      0.85602877	     -0.20575017	    -29.73725314	     -1.48489526	    -20.22742463	     25.19824697	     -5.30250785	      0.43979238	      2.67657084	     22.03717770	     -7.50017634	     16.08158317	      7.38917405	    -13.15825060	     28.30889755	     -2.48423970	      0.49408347	      7.91078479	     -8.89532688	     -7.50017634	    -21.66596399	     -5.70290724	      3.14678286	      0.82169752	     -3.52745764	    -13.31886434	     43.44896860	     90.00000001	      0.00000000	      0.00000000	     -5.48398913	     -4.26678023	    -27.01869485	     31.24007156	     90.00000001	      0.00000000	      0.00000000
      2.03000000	     11.53006542	      2.81201417	     -5.05146733	      1.20541652	      0.85732868	     -0.20503158	    -29.70984604	     -2.11749576	    -18.14260490	     27.24657825	     -5.17519845	      0.47554250	     -0.06389421	     18.23129896	     -7.50016416	     15.11029547	      8.16893031	    -11.29720896	     29.22751861	     -1.83231816	      0.51011643	      8.09199009	    -11.35616722	     -7.50016416	    -22.13292495	     -6.40399307	      2.97669745	      0.47218768	     -3.37644132	    -13.57637163	     43.02096435	     90.00000001	      0.00000000	      0.00000000	     -5.36999079	     -4.39245831	    -27.06285191	     31.19010320	     90.00000001	      0.00000000	      0.00000000
      2.04000000	     12.10132506	      3.28750831	     -5.10819221	      1.21817333	      0.85892401	     -0.20440357	    -29.66202316	     -2.73440944	    -15.83954979	     29.54162799	     -4.85926419	      0.51559867	     -2.67407256	     14.41153995	     -7.50015172	     13.82316218	      8.85102173	    -10.19855274	     29.77390810	     -1.41724488	      0.51965273	      8.68795947	    -12.64950085	     -7.50015172	    -22.76086323	     -7.00653985	      2.83151733	      0.12110509	     -3.28632836	    -13.82101544	     42.63047358	     90.00000001	      0.00000000	      0.00000000	     -5.23426982	     -4.48204345	    -27.01078949	     31.22374118	     90.00000001	      0.00000000	      0.00000000
      2.05000000	     12.83689278	      3.63591438	     -5.13962840	      1.23068959	      0.86063782	     -0.20386394	    -29.53744824	     -3.35390756	    -14.50272081	     32.13400812	     -4.75669767	      0.56084424	     -4.01492117	     14.05530663	     -7.50015050	     12.25655054	      9.35248634	     -9.96831133	     30.10898571	     -1.28493015	      0.52550094	      9.35096207	    -12.75524334	     -7.50015050	    -23.61010139	     -7.43573136	      2.65348625	     -0.21072429	     -3.29588338	    -13.87893153	     42.42295595	     90.00000001	      0.00000000	      0.00000000	     -5.04451014	     -4.51952872	    -26.98208030	     31.29845332	     90.00000001	      0.00000000	      0.00000000
      2.06000000	     13.50754435	      3.94043207	     -5.21584856	      1.24306130	      0.86273544	     -0.20342334	    -29.34168324	     -3.84919994	    -11.31798533	     34.74546986	     -3.81638943	      0.60642285	     -7.07859795	      7.70150357	     -7.50013861	     10.45884575	      9.87717498	    -10.01129145	     29.78891241	     -1.36165491	      0.51991460	     10.63384738	    -12.24684547	     -7.50013861	    -24.38594566	     -7.80054677	      2.52377372	     -0.54812718	     -3.29913295	    -14.04893355	     42.00501684	     90.00000001	      0.00000000	      0.00000000	     -4.91708534	     -4.55359808	    -26.68070155	     31.61616829	     90.00000001	      0.00000000	      0.00000000
